#!OML:ASF \\sashay\E\Suitcase\Project 1\Capture day 1\Session 1\Male1.ASF
:FULLY-SPECIFIED
:DEGREES
1317
root -0.71471 17.2382 19.8582 3.60973 1.10888 -4.40175
lowerback 7.7942 -1.53771 4.00716
upperback -0.483631 -1.4886 3.76719
thorax -4.88617 -0.789438 1.84968
lowerneck -20.7641 0.900747 -0.373305
upperneck 13.4687 2.25059 -5.02137
head 7.61013 0.544081 -1.32971
rclavicle 1.98785e-014 -1.59028e-015
rhumerus -59.6109 -51.4738 -26.8836
rradius 10.0739
rwrist 28.3709
rhand -9.12543 21.7569
rfingers 7.12502
rthumb 16.8257 -7.53408
lclavicle 1.98785e-014 -1.59028e-015
lhumerus -37.4505 -0.0999786 88.7076
lradius 34.5861
lwrist -2.19556
lhand -6.20834 42.1973
lfingers 7.12502
lthumb 19.6321 71.226
rfemur -5.32198 -0.900543 29.8798
rtibia 14.6566
rfoot -12.7486 -9.81217
rtoes 18.4701
lfemur -6.68691 -5.37129 -8.32787
ltibia 19.0674
lfoot -15.3972 5.45783
ltoes 2.72018
1318
root -0.703326 17.2233 19.8391 3.77142 1.0588 -3.97438
lowerback 7.78624 -1.56956 3.72594
upperback -0.686449 -1.5522 3.67545
thorax -5.0885 -0.817114 1.92434
lowerneck -20.2345 0.903495 -0.533172
upperneck 13.4142 2.28082 -4.99006
head 7.50232 0.562003 -1.28899
rclavicle -8.94531e-016 -1.35174e-014
rhumerus -58.7179 -51.1765 -27.7861
rradius 9.94493
rwrist 27.5861
rhand -9.23819 21.9939
rfingers 7.12502
rthumb 16.7171 -7.30635
lclavicle -8.94531e-016 -1.35174e-014
lhumerus -37.8366 -0.0772666 88.7698
lradius 34.3252
lwrist -2.50823
lhand -5.89737 42.4309
lfingers 7.12502
lthumb 19.931 71.4288
rfemur -5.48576 -1.02908 29.3311
rtibia 14.6107
rfoot -12.8552 -9.46771
rtoes 20.209
lfemur -6.84461 -5.50051 -8.84736
ltibia 19.0894
lfoot -15.8302 6.21135
ltoes 1.06034
1319
root -0.707141 17.2218 19.8378 3.65986 0.938369 -4.01285
lowerback 7.7427 -1.57073 3.77361
upperback -0.563411 -1.55848 3.67522
thorax -4.9362 -0.820045 1.89304
lowerneck -20.3892 0.80587 -0.567537
upperneck 13.5417 2.14867 -4.88522
head 7.56516 0.502643 -1.2656
rclavicle 1.76918e-014 -2.22639e-014
rhumerus -57.6134 -51.3109 -28.9413
rradius 9.88233
rwrist 27.5387
rhand -9.30077 22.5774
rfingers 7.12502
rthumb 16.6569 -6.72784
lclavicle 1.76918e-014 -2.22639e-014
lhumerus -37.7688 -0.261432 88.8051
lradius 34.2714
lwrist -2.30736
lhand -5.21804 42.3923
lfingers 7.12502
lthumb 20.5839 71.3209
rfemur -5.35295 -1.11947 29.3711
rtibia 14.515
rfoot -12.6444 -9.36631
rtoes 18.9113
lfemur -6.68396 -5.49432 -8.81883
ltibia 19.1024
lfoot -14.9284 5.99601
ltoes 0.604735
1320
root -0.708539 17.2266 19.8242 3.70297 0.670389 -3.94839
lowerback 7.69153 -1.51671 3.7402
upperback -0.565702 -1.49309 3.67446
thorax -4.90897 -0.786831 1.90139
lowerneck -20.0657 0.755661 -0.885086
upperneck 13.4187 2.11944 -4.67926
head 7.46371 0.499382 -1.14864
rclavicle -1.88845e-015 -3.73715e-014
rhumerus -56.6091 -51.3058 -29.9955
rradius 9.85747
rwrist 27.2794
rhand -9.23556 22.5786
rfingers 7.12502
rthumb 16.7197 -6.72137
lclavicle -1.88845e-015 -3.73715e-014
lhumerus -37.7586 -0.273999 88.8607
lradius 33.9647
lwrist -2.51086
lhand -4.67787 43.0186
lfingers 7.12502
lthumb 21.1029 71.8902
rfemur -5.67456 -0.912238 29.3039
rtibia 14.89
rfoot -12.5852 -9.29647
rtoes 18.9746
lfemur -6.5751 -5.35814 -8.89567
ltibia 18.8358
lfoot -15.6985 6.41842
ltoes -0.487095
1321
root -0.714706 17.2265 19.8254 3.66325 0.507562 -3.93791
lowerback 7.54225 -1.5187 3.63864
upperback -0.487257 -1.51676 3.72201
thorax -4.73832 -0.794214 2.00338
lowerneck -20.1964 0.815894 -0.717139
upperneck 13.6628 2.22412 -4.97964
head 7.57548 0.521056 -1.26385
rclavicle -5.66536e-015 1.03368e-014
rhumerus -55.4818 -51.2415 -31.1402
rradius 9.51531
rwrist 26.3613
rhand -9.8796 24.0412
rfingers 7.12502
rthumb 16.0996 -5.31003
lclavicle -5.66536e-015 1.03368e-014
lhumerus -37.8441 0.326868 88.6333
lradius 34.0413
lwrist -2.88033
lhand -5.11045 42.6967
lfingers 7.12502
lthumb 20.6873 71.6141
rfemur -5.52324 -0.802495 29.3088
rtibia 14.6574
rfoot -12.4488 -9.18093
rtoes 18.332
lfemur -6.52035 -5.34578 -8.90049
ltibia 18.911
lfoot -15.7928 6.50404
ltoes 0.333584
1322
root -0.712737 17.2278 19.8101 3.58165 0.470204 -3.97208
lowerback 7.65221 -1.5654 3.74121
upperback -0.445043 -1.56273 3.7619
thorax -4.75787 -0.818824 1.99568
lowerneck -20.0779 0.90345 -0.752683
upperneck 13.622 2.35208 -5.00107
head 7.54519 0.580594 -1.24925
rclavicle 1.51076e-014 -2.06736e-014
rhumerus -54.2942 -51.2514 -32.3252
rradius 9.5067
rwrist 26.2709
rhand -9.91633 24.0058
rfingers 7.12502
rthumb 16.0642 -5.34826
lclavicle 1.51076e-014 -2.06736e-014
lhumerus -37.7126 0.154697 88.7267
lradius 33.5711
lwrist -3.00342
lhand -5.83012 42.0437
lfingers 7.12502
lthumb 19.9957 71.0349
rfemur -5.50859 -0.79767 29.324
rtibia 14.7254
rfoot -12.6036 -9.21597
rtoes 18.2391
lfemur -6.43261 -5.45795 -8.88141
ltibia 18.8387
lfoot -15.5136 6.58848
ltoes 2.10115
1323
root -0.722356 17.2455 19.8056 3.55073 0.285163 -4.17463
lowerback 7.54539 -1.51843 3.8759
upperback -0.342044 -1.49747 3.82881
thorax -4.59222 -0.78758 1.97605
lowerneck -20.268 0.984402 -0.505536
upperneck 13.7944 2.44365 -5.20813
head 7.64272 0.610122 -1.3477
rclavicle -3.77691e-015 -3.97569e-015
rhumerus -53.2403 -51.343 -33.3866
rradius 9.36864
rwrist 25.9082
rhand -9.99489 24.0539
rfingers 7.12502
rthumb 15.9886 -5.30633
lclavicle -3.77691e-015 -3.97569e-015
lhumerus -37.6448 0.263778 88.6966
lradius 33.411
lwrist -3.33245
lhand -6.07179 42.0427
lfingers 7.12502
lthumb 19.7633 71.058
rfemur -5.52359 -0.504295 29.5844
rtibia 14.7548
rfoot -12.4194 -9.42288
rtoes 17.851
lfemur -6.41151 -5.24708 -8.62011
ltibia 18.7781
lfoot -15.4011 6.40402
ltoes 1.61187
1324
root -0.722295 17.2276 19.7962 3.59563 0.125459 -4.00148
lowerback 7.40452 -1.54343 3.74601
upperback -0.314849 -1.55733 3.74167
thorax -4.48259 -0.814533 1.95899
lowerneck -20.2496 1.04885 -0.415829
upperneck 13.8679 2.50187 -5.16932
head 7.6656 0.645323 -1.34247
rclavicle 1.32192e-014 -6.36111e-015
rhumerus -52.1823 -51.1992 -34.5947
rradius 9.23662
rwrist 25.6396
rhand -10.0707 24.8732
rfingers 7.12502
rthumb 15.9156 -4.49279
lclavicle 1.32192e-014 -6.36111e-015
lhumerus -37.5885 0.428892 88.4565
lradius 33.0885
lwrist -3.63379
lhand -5.15094 42.3531
lfingers 7.12502
lthumb 20.6484 71.2747
rfemur -5.58758 -0.361767 29.3983
rtibia 14.7301
rfoot -12.4656 -9.37232
rtoes 17.6306
lfemur -6.42081 -5.22832 -8.81757
ltibia 18.8352
lfoot -15.422 6.66478
ltoes 1.03955
1325
root -0.715378 17.2307 19.7805 3.5639 0.0177878 -3.75816
lowerback 7.45207 -1.55226 3.58411
upperback -0.270116 -1.58377 3.71921
thorax -4.45844 -0.823887 2.02942
lowerneck -20.3283 1.08692 -0.310376
upperneck 13.9624 2.58973 -5.4874
head 7.72011 0.657261 -1.4551
rclavicle 2.21645e-014 -2.46493e-014
rhumerus -51.0372 -51.1731 -35.7285
rradius 9.15599
rwrist 25.2104
rhand -10.2447 24.9534
rfingers 7.12502
rthumb 15.748 -4.42588
lclavicle 2.21645e-014 -2.46493e-014
lhumerus -37.6355 0.649445 88.4748
lradius 33.1351
lwrist -3.8097
lhand -5.41313 42.4632
lfingers 7.12502
lthumb 20.3964 71.412
rfemur -5.66097 -0.554941 29.0782
rtibia 14.8063
rfoot -12.3503 -9.01728
rtoes 17.3689
lfemur -6.40715 -5.30393 -9.13768
ltibia 18.8566
lfoot -15.2508 6.80169
ltoes 1.66417
1326
root -0.73116 17.2259 19.7724 3.66643 -0.0504647 -4.34557
lowerback 7.30394 -1.48855 4.05887
upperback -0.25408 -1.45713 3.96683
thorax -4.36586 -0.768454 2.00288
lowerneck -20.4189 0.999961 -0.454159
upperneck 14.0555 2.51853 -5.47924
head 7.763 0.612565 -1.43853
rclavicle -9.44227e-015 -1.11319e-014
rhumerus -50.2851 -51.1694 -36.4027
rradius 9.11612
rwrist 24.4998
rhand -10.2535 25.9294
rfingers 7.12502
rthumb 15.7395 -3.45059
lclavicle -9.44227e-015 -1.11319e-014
lhumerus -37.4789 0.527933 88.6562
lradius 32.7682
lwrist -3.95328
lhand -5.28906 42.5847
lfingers 7.12502
lthumb 20.5157 71.5207
rfemur -5.81842 -0.0148225 29.8179
rtibia 14.8669
rfoot -12.3889 -9.45327
rtoes 17.8311
lfemur -6.5384 -5.10957 -8.37208
ltibia 18.7973
lfoot -15.2307 6.71965
ltoes 0.650831
1327
root -0.724634 17.2254 19.754 3.70026 -0.142045 -3.79943
lowerback 7.43505 -1.51111 3.563
upperback -0.389327 -1.5208 3.83444
thorax -4.57039 -0.792062 2.15721
lowerneck -19.9106 1.02534 -0.539518
upperneck 13.9747 2.5557 -5.44955
head 7.64979 0.638592 -1.40941
rclavicle -5.66536e-015 7.15625e-015
rhumerus -49.3976 -50.8646 -37.3621
rradius 9.00131
rwrist 24.3543
rhand -10.6822 26.4724
rfingers 7.12502
rthumb 15.3266 -2.93965
lclavicle -5.66536e-015 7.15625e-015
lhumerus -37.5999 0.655771 88.6171
lradius 32.5165
lwrist -3.99444
lhand -5.4097 42.6011
lfingers 7.12502
lthumb 20.3997 71.5496
rfemur -5.80349 -0.298792 29.188
rtibia 14.6721
rfoot -12.3598 -9.10213
rtoes 17.9222
lfemur -6.629 -5.11447 -9.02147
ltibia 18.8367
lfoot -15.0344 6.75119
ltoes 0.882955
